<svg width="67" height="79" viewBox="0 0 67 79" fill="none" xmlns="http://www.w3.org/2000/svg">
<path d="M38.2566 4.63419L33.4992 0.337891L28.7755 4.63419C18.7255 13.9377 0 31.0638 0 47.9239C0 66.6211 13.1651 78.7083 33.5 78.7083C53.8349 78.7083 67 66.6197 67 47.9239C67 31.0648 48.3074 13.9379 38.257 4.63419H38.2566ZM33.4992 72.7823C16.7492 72.7823 6.69923 63.4788 6.69923 47.9239C6.69923 33.5237 24.7555 16.9313 33.4992 8.90085C42.2429 16.9307 60.2992 33.4934 60.2992 47.9239C60.2992 63.4795 50.2492 72.7823 33.4992 72.7823ZM40.1992 43.1527H50.2492V55.0046H40.1992V63.8934H26.7992V55.0046H16.7492V43.1527H26.7992V34.2638H40.1992V43.1527Z" fill="#EDEDED"/>
</svg>
