<svg width="83" height="79" viewBox="0 0 83 79" fill="none" xmlns="http://www.w3.org/2000/svg">
<path d="M44.6927 0.0412598H38.308C17.9099 0.0412598 0 14.4276 0 30.8294V53.2208C0 58.4825 0 64.4165 9.577 64.4165H12.7693V73.5693C12.7693 74.8532 13.3515 76.0846 14.3869 76.9929C15.423 77.9007 16.8275 78.4111 18.2917 78.4111H64.7083C66.1726 78.4111 67.5772 77.9007 68.6131 76.9929C69.6485 76.0845 70.2307 74.8531 70.2307 73.5693V64.4165H73.423C83 64.4165 83 58.4825 83 53.2208V30.8294C83 14.4277 65.0915 0.0412598 44.6927 0.0412598ZM76.616 53.2208C76.616 58.8186 76.616 58.8186 73.4237 58.8186H69.369C67.9047 58.8186 66.5001 59.3291 65.4642 60.2368C64.4288 61.1452 63.8466 62.3767 63.8466 63.6605V72.8133H57.462V64.4165H51.0773V72.8133H44.6926V64.4165H38.308V72.8133H31.9233V64.4165H25.5386V72.8133H19.154V63.6605C19.154 62.3766 18.5718 61.1451 17.5364 60.2368C16.5003 59.3291 15.0958 58.8186 13.6316 58.8186H9.57693C6.38459 58.8186 6.38459 58.8186 6.38459 53.2208V30.8294C6.38459 16.415 23.2397 5.63911 38.3079 5.63911H44.6926C59.7608 5.63911 76.6159 16.415 76.6159 30.8294L76.616 53.2208ZM35.1157 30.8294C35.1157 33.0567 34.1067 35.1921 32.311 36.7671C30.5146 38.3415 28.079 39.2262 25.5387 39.2262C22.9983 39.2262 20.5628 38.3415 18.7664 36.7671C16.9707 35.1921 15.9617 33.0567 15.9617 30.8294C15.9617 28.6021 16.9707 26.4668 18.7664 24.8917C20.5628 23.3173 22.9983 22.4326 25.5387 22.4326C28.079 22.4326 30.5145 23.3173 32.311 24.8917C34.1067 26.4667 35.1157 28.6021 35.1157 30.8294ZM67.039 30.8294C67.039 33.0567 66.03 35.1921 64.2343 36.7671C62.4379 38.3415 60.0024 39.2262 57.462 39.2262C54.9216 39.2262 52.4862 38.3415 50.6897 36.7671C48.894 35.1921 47.885 33.0567 47.885 30.8294C47.885 28.6021 48.894 26.4668 50.6897 24.8917C52.4861 23.3173 54.9216 22.4326 57.462 22.4326C60.0024 22.4326 62.4378 23.3173 64.2343 24.8917C66.03 26.4667 67.039 28.6021 67.039 30.8294ZM41.5003 38.5546L49.8646 53.2208H33.1362L41.5003 38.5546Z" fill="#EDEDED"/>
</svg>
