<svg width="107" height="79" viewBox="0 0 107 79" fill="none" xmlns="http://www.w3.org/2000/svg">
<path d="M105.437 26.0749H96.583V13.8176C96.583 13.4204 96.3025 13.0522 95.8427 12.8433C95.3822 12.6344 94.807 12.6153 94.3226 12.7926C87.2528 15.3843 82.3585 20.3467 81.2163 26.0809H72.4165V3.12555C72.4165 2.77806 72.2015 2.44912 71.8317 2.23202C71.4619 2.01437 70.9768 1.932 70.5147 2.00727C64.8496 2.93081 59.7834 5.24265 56.1518 8.56153C52.521 11.881 50.5417 16.0081 50.5417 20.2631V26.0748H43.0418V4.53826C43.0396 3.42489 42.4354 2.35737 41.361 1.57018C40.2873 0.782475 38.8313 0.339525 37.3126 0.337891H10.229C9.36595 0.337891 8.66655 0.850665 8.66655 1.48344V26.0741H1.89574C1.03266 26.0741 0.333252 26.5869 0.333252 27.2197V33.3293C0.333252 33.9621 1.03266 34.4748 1.89574 34.4748H8.66655V44.2502C8.66655 44.883 9.36595 45.3958 10.229 45.3958H31.0632C32.5007 45.3974 33.6651 46.2511 33.6673 47.305V51.8109H33.1465C32.2834 51.8109 31.584 52.3237 31.584 52.9565V74.3394C31.584 75.8401 32.6763 77.2268 34.4486 77.9768C36.2209 78.7274 38.4053 78.7274 40.1777 77.9768C41.95 77.2268 43.0422 75.8401 43.0422 74.3394V34.474H50.5422V44.3639C50.5422 44.9967 51.2416 45.5095 52.1047 45.5095H60.4379C61.8754 45.5111 63.0398 46.3648 63.0421 47.4187V51.81H62.5213C61.6582 51.81 60.9588 52.3227 60.9588 52.9555V71.2844C60.9588 72.785 62.051 74.1717 63.8233 74.9218C65.5956 75.6724 67.7801 75.6724 69.5524 74.9218C71.3248 74.1717 72.417 72.785 72.417 71.2844V34.4745H80.9586V45.8918C80.9586 46.5246 81.6581 47.0374 82.5211 47.0374H87.2085V51.8106H86.6877C85.8246 51.8106 85.1252 52.3233 85.1252 52.9561V66.7028C85.1252 68.2035 86.2175 69.5902 87.9898 70.3402C89.7621 71.0908 91.9465 71.0908 93.7189 70.3402C95.4912 69.5902 96.5834 68.2035 96.5834 66.7028V34.4748H105.437C105.852 34.4748 106.249 34.3542 106.542 34.1393C106.836 33.9244 107 33.6331 107 33.3292V27.2196C107 26.9158 106.836 26.6245 106.542 26.4095C106.249 26.1946 105.852 26.0741 105.437 26.0741L105.437 26.0749ZM8.66634 32.1845H3.45799V28.366H8.66634V32.1845ZM39.9156 74.3416C39.9156 75.396 38.7497 76.2508 37.3115 76.2508C35.8732 76.2508 34.7073 75.396 34.7073 74.3416V54.1037H39.9156V74.3416ZM39.9156 51.8121H36.7907V47.3062C36.7885 46.1928 36.1843 45.1253 35.1099 44.3381C34.0363 43.5504 32.5802 43.1075 31.0616 43.1058H11.7912V2.63017H37.3111C38.7485 2.63181 39.9129 3.48552 39.9152 4.53944L39.9156 51.8121ZM50.5405 32.1845H43.0406V28.366H50.5405V32.1845ZM69.2905 71.2861C69.2905 72.3405 68.1246 73.1953 66.6863 73.1953C65.2481 73.1953 64.0821 72.3405 64.0821 71.2861V54.1023H69.2905V71.2861ZM69.2905 51.8121H66.1656V47.4209C66.1633 46.3075 65.5592 45.24 64.4848 44.4528C63.4111 43.6651 61.9551 43.2221 60.4364 43.2205H53.6656V20.2637C53.641 16.7725 55.1455 13.3675 57.9587 10.5505C60.7713 7.73348 64.7436 5.653 69.2904 4.61541L69.2905 51.8121ZM80.9571 28.6458V32.1851H72.4154V28.3666H80.9571V28.6458ZM93.457 66.7042C93.457 67.7587 92.2911 68.6135 90.8528 68.6135C89.4146 68.6135 88.2486 67.7587 88.2486 66.7042V54.1032H93.457V66.7042ZM93.457 51.8121H90.332V45.8934C90.332 45.5895 90.1676 45.2982 89.8745 45.0833C89.5813 44.8684 89.184 44.7478 88.7696 44.7478H84.0822V28.6464C84.0569 23.4811 87.5806 18.6529 93.4572 15.8025L93.457 51.8121ZM103.874 32.1845H96.5821V28.366H103.874V32.1845Z" fill="#EDEDED"/>
<path d="M31.0624 4.92065C29.543 4.92065 28.0854 5.36302 27.011 6.15066C25.9365 6.93829 25.3331 8.00685 25.3331 9.12073C25.3331 10.2346 25.9366 11.3031 27.011 12.0908C28.0854 12.8785 29.543 13.3208 31.0624 13.3208C32.5818 13.3208 34.0393 12.8784 35.1138 12.0908C36.1883 11.3032 36.7916 10.2346 36.7916 9.12073C36.7894 8.00745 36.1852 6.94002 35.1108 6.15289C34.0372 5.36526 32.5811 4.92234 31.0625 4.92071L31.0624 4.92065ZM31.0624 11.0298C30.0088 11.0298 29.0593 10.5645 28.6561 9.85103C28.2536 9.13811 28.476 8.3167 29.2208 7.77072C29.9656 7.22474 31.0861 7.06163 32.0585 7.35673C33.0317 7.65236 33.6664 8.34837 33.6664 9.12076C33.6642 10.1746 32.4997 11.0282 31.0622 11.0299L31.0624 11.0298Z" fill="#EDEDED"/>
</svg>
