<svg width="16" height="16" viewBox="0 0 16 16" fill="none" xmlns="http://www.w3.org/2000/svg">
<path d="M14.8541 6.83422L14.7974 6.77132C8.86503 0.500001 8.84886 0.5 8.29095 0.5C7.73305 0.5 7.56355 0.5 1.77663 6.79001L1.7281 6.84659C1.08802 7.73183 0.751709 8.73051 0.751709 9.74633C0.751709 10.7621 1.08799 11.7608 1.7281 12.6461C3.09308 14.4178 5.55328 15.5014 8.20778 15.5C10.8621 15.4986 13.3204 14.4124 14.6824 12.6393C16.0443 10.8662 16.1094 8.66689 14.8541 6.84674L14.8541 6.83422ZM14.0054 10.9605V10.9603C13.5909 12.142 12.5892 13.1465 11.2216 13.7525C9.85391 14.3585 8.23256 14.5162 6.71553 14.1906C5.19828 13.865 3.91001 13.083 3.1348 12.0172C2.12452 10.6077 2.12452 8.89153 3.1348 7.48188C5.0583 5.33695 7.27284 3.01597 8.29131 2.066C9.37429 3.14796 11.8556 5.75195 13.4963 7.48799C14.2492 8.54748 14.4323 9.79578 14.0056 10.96L14.0054 10.9605Z" fill="#FF0404"/>
<path d="M8.29136 13.0801C7.27585 13.0831 6.29171 12.8072 5.51179 12.3012C4.73169 11.7951 4.20601 11.0912 4.02705 10.3133C3.84808 9.53534 4.02723 8.73338 4.53309 8.0481L5.93937 8.6771C5.46542 9.32899 5.47156 10.1276 5.9556 10.7748C6.4398 11.4222 7.32904 11.8208 8.29134 11.8221C8.7566 11.8211 9.21341 11.7258 9.61679 11.5454L10.425 12.6398C9.77682 12.9316 9.04022 13.0836 8.29134 13.0801L8.29136 13.0801Z" fill="#FF0404"/>
</svg>
