<?xml version="1.0" standalone="no"?>
<!DOCTYPE svg PUBLIC "-//W3C//DTD SVG 20010904//EN"
 "http://www.w3.org/TR/2001/REC-SVG-20010904/DTD/svg10.dtd">
<svg version="1.0" xmlns="http://www.w3.org/2000/svg"
 width="700.000000pt" height="700.000000pt" viewBox="0 0 700.000000 700.000000"
 preserveAspectRatio="xMidYMid meet">
<metadata>
Created by potrace 1.14, written by Peter Selinger 2001-2017
</metadata>
<g transform="translate(0.000000,700.000000) scale(0.100000,-0.100000)"
fill="#000000" stroke="none">
<path d="M3480 6757 c-98 -41 -176 -99 -350 -256 -160 -145 -662 -653 -940
-951 -23 -25 -95 -101 -160 -170 -65 -69 -132 -141 -150 -160 -18 -19 -60 -64
-94 -100 -33 -36 -108 -117 -166 -179 -58 -62 -118 -128 -135 -146 -59 -63
-233 -251 -259 -280 -15 -16 -72 -77 -125 -135 -54 -58 -109 -117 -122 -131
-13 -15 -63 -69 -110 -120 -120 -130 -144 -161 -220 -285 -129 -210 -223 -446
-275 -689 -16 -73 -18 -89 -33 -195 -10 -68 -7 -420 3 -480 10 -54 18 -102 23
-135 33 -207 181 -568 320 -777 169 -254 423 -502 738 -720 71 -49 319 -198
330 -198 2 0 49 -22 103 -49 298 -146 654 -258 1027 -321 273 -47 381 -55 705
-55 287 0 387 6 610 40 515 76 975 235 1393 482 89 53 204 129 252 165 346
267 556 493 737 793 159 265 261 556 296 850 9 78 9 381 0 467 -33 299 -151
624 -331 907 -43 68 -107 146 -208 252 -81 85 -168 177 -194 204 -26 28 -109
115 -185 195 -75 80 -152 161 -170 180 -34 37 -390 411 -600 631 -25 25 -83
87 -129 135 -539 569 -977 1004 -1144 1137 -120 95 -155 110 -277 114 -93 3
-111 1 -160 -20z m407 -924 c138 -142 277 -285 310 -319 32 -33 149 -155 260
-270 111 -115 223 -232 250 -260 26 -28 121 -127 210 -220 207 -217 228 -239
413 -434 85 -90 172 -182 193 -204 137 -143 327 -343 354 -373 76 -83 186
-281 248 -448 208 -561 86 -1174 -333 -1675 -318 -380 -809 -672 -1362 -810
-296 -74 -477 -95 -800 -95 -182 0 -347 8 -405 19 -11 2 -47 7 -80 12 -33 4
-62 8 -65 9 -3 1 -25 5 -50 9 -396 69 -837 250 -1145 470 -444 317 -717 715
-815 1186 -30 145 -35 401 -10 552 19 114 61 273 86 322 7 16 14 33 14 39 0
38 182 355 236 412 11 11 62 67 114 125 52 58 99 110 105 116 5 6 26 29 45 50
104 114 383 418 436 474 34 36 90 96 125 134 117 127 204 218 529 560 206 217
865 876 875 876 6 0 124 -116 262 -257z"/>
<path d="M1947 3427 c-87 -133 -144 -260 -177 -395 -29 -117 -34 -157 -34
-277 -1 -151 16 -255 60 -385 137 -398 480 -731 952 -925 112 -46 326 -110
402 -120 24 -4 47 -8 51 -10 3 -2 30 -7 60 -10 30 -3 61 -8 69 -10 55 -14 415
-23 486 -11 16 2 58 7 94 10 62 6 78 8 140 21 14 2 36 7 50 9 105 19 312 81
414 125 35 16 46 25 38 34 -10 13 -30 40 -222 299 l-123 166 -51 -20 c-72 -30
-242 -74 -328 -86 -76 -11 -366 -9 -428 2 -494 91 -850 374 -936 743 -43 186
1 421 108 575 24 35 23 47 -8 58 -14 6 -51 22 -82 36 -31 14 -97 44 -147 66
-49 22 -108 48 -130 58 -46 22 -146 66 -192 86 l-31 14 -35 -53z"/>
</g>
</svg>
