<svg width="458" height="177" viewBox="0 0 458 177" fill="none" xmlns="http://www.w3.org/2000/svg">
<path d="M59.0765 57.9246H31.4481L4.57996 173.519H28.6708C59.0874 173.519 91.861 148.666 99.4661 115.721C107.069 82.7777 89.4918 57.9246 59.0765 57.9246ZM72.5458 116.655C68.1604 138.51 49.6206 155.216 34.159 155.216H33.145L51.3949 76.2268H52.4084C69.992 76.2272 77.6035 91.4521 72.5458 116.655Z" fill="#E31E38"/>
<path d="M327.925 121.116H357.316L360.61 106.667H331.22L339.33 72.3742H368.062L372.535 57.9246H314.832L287.965 173.519H354.515L358.989 159.07H319.053L327.925 121.116Z" fill="#E31E38"/>
<path d="M452.708 91.2543C457.016 72.7596 440.794 57.9246 416.461 57.9246H386.551L359.684 173.518H386.298L397.198 126.511L419.494 173.518H450.441C436.579 143.679 424.572 120.153 424.572 120.153C439.527 113.795 450.173 102.621 452.708 91.2543ZM428.628 91.2543C426.346 101.657 415.448 110.328 401.76 110.328H401L409.871 72.3742H410.631C424.32 72.3742 431.163 80.8512 428.628 91.2543Z" fill="#E31E38"/>
<path d="M288.221 57.9246L294.54 30.4812H287.862C281.631 50.9306 264.268 57.9246 251.722 57.9246H246.147H237.527H224.272L204.249 84.896L199.18 57.9246H175.77H172.476H118.067L91.2006 173.519H139.107H148.319H158.37L186.505 135.565L196.214 173.519H224.095L208.303 105.704L234.702 72.3742H258.312L234.739 173.519H261.353L284.925 72.3742H309.005L312.3 57.9249H288.221V57.9246ZM150.054 159.07H119.93L128.802 121.116H154.656L157.951 106.667H132.097L140.207 72.3742H170.117L173.576 63.5317L183.628 114.759L150.054 159.07Z" fill="#E31E38"/>
<path d="M76.166 14.2563H74.066V33.1562H76.166V40.0443H60.29V33.1562H62.306V18.4563L55.166 40.0443H48.95L41.6 18.6663V33.1562H43.616V40.0443H29.84V33.1562H31.94V14.2563H29.84V7.36825H49.076L53.444 20.4722L57.644 7.36825H76.166V14.2563Z" fill="#E31E38"/>
<path d="M80.3482 40.0443V33.1562H82.4482V14.2563H80.3482V7.36825H108.698V20.0522H99.2902V14.2563H94.2083V20.8923H97.9043V25.6803H94.2083V33.1562H99.2902V26.5203H108.698V40.0443H80.3482ZM90.1342 4.84825V4.21825L94.7122 0.186249H105.254V1.27825L98.4082 4.84825H90.1342Z" fill="#E31E38"/>
<path d="M144.142 17.5323H136.918V14.2563H134.23V33.1562H137.17V40.0443H119.53V33.1562H122.47V14.2563H119.782V17.5323H112.558V7.36825H144.142V17.5323Z" fill="#E31E38"/>
<path d="M163.893 40.6323C158.769 40.6323 154.807 39.2883 152.007 36.6003C149.235 33.9123 147.849 29.6142 147.849 23.7062C147.849 17.7982 149.235 13.5003 152.007 10.8123C154.807 8.12425 158.769 6.78025 163.893 6.78025C169.017 6.78025 172.965 8.12425 175.737 10.8123C178.537 13.5003 179.937 17.7982 179.937 23.7062C179.937 29.6142 178.537 33.9123 175.737 36.6003C172.965 39.2883 169.017 40.6323 163.893 40.6323ZM163.893 33.1562C164.845 33.1562 165.559 32.9042 166.035 32.4002C166.511 31.8962 166.749 31.1123 166.749 30.0483V17.3643C166.749 16.3003 166.511 15.5163 166.035 15.0123C165.559 14.5083 164.845 14.2563 163.893 14.2563C162.941 14.2563 162.227 14.5083 161.751 15.0123C161.275 15.5163 161.037 16.3003 161.037 17.3643V30.0483C161.037 31.1402 161.275 31.9382 161.751 32.4422C162.227 32.9182 162.941 33.1562 163.893 33.1562Z" fill="#E31E38"/>
<path d="M183.885 33.1562H185.985V14.2983H183.885V7.36825H200.937C205.613 7.36825 209.323 8.65625 212.067 11.2322C214.839 13.7802 216.225 17.9382 216.225 23.7062C216.225 29.4742 214.839 33.6463 212.067 36.2223C209.323 38.7703 205.613 40.0443 200.937 40.0443H183.885V33.1562ZM200.181 33.1562C201.133 33.1562 201.847 32.9042 202.323 32.4002C202.799 31.8962 203.037 31.1123 203.037 30.0483V17.3643C203.037 15.2923 202.085 14.2563 200.181 14.2563H197.745V33.1562H200.181Z" fill="#E31E38"/>
<path d="M235.953 40.6323C230.829 40.6323 226.867 39.2883 224.067 36.6003C221.295 33.9123 219.909 29.6142 219.909 23.7062C219.909 17.7982 221.295 13.5003 224.067 10.8123C226.867 8.12425 230.829 6.78025 235.953 6.78025C241.077 6.78025 245.025 8.12425 247.797 10.8123C250.597 13.5003 251.997 17.7982 251.997 23.7062C251.997 29.6142 250.597 33.9123 247.797 36.6003C245.025 39.2883 241.077 40.6323 235.953 40.6323ZM235.953 33.1562C236.905 33.1562 237.619 32.9042 238.095 32.4002C238.571 31.8962 238.809 31.1123 238.809 30.0483V17.3643C238.809 16.3003 238.571 15.5163 238.095 15.0123C237.619 14.5083 236.905 14.2563 235.953 14.2563C235.001 14.2563 234.287 14.5083 233.811 15.0123C233.335 15.5163 233.097 16.3003 233.097 17.3643V30.0483C233.097 31.1402 233.335 31.9382 233.811 32.4422C234.287 32.9182 235.001 33.1562 235.953 33.1562Z" fill="#E31E38"/>
</svg>
